<?xml version="1.0" encoding="UTF-8"?>
<svg width="109px" height="56px" viewBox="0 0 109 56" version="1.1" xmlns="http://www.w3.org/2000/svg" xmlns:xlink="http://www.w3.org/1999/xlink">
    <title>Logo/Large/Geel/Achtergrond</title>
    <g id="Logo/Large/Geel/Achtergrond" stroke="none" stroke-width="1" fill="none" fill-rule="evenodd">
        <rect id="Rectangle" fill="#F4D02E" x="0" y="0" width="109" height="56"></rect>
        <path d="M26.032,45.96 C29.296,45.96 34.384,45.912 37.552,42.648 C40.576,39.528 40.624,34.968 40.624,32.232 L40.624,11.4 L29.968,11.4 L29.968,32.712 C29.968,33.912 29.872,35.688 29.008,36.792 C28.144,37.896 26.848,38.088 25.84,38.088 C23.968,38.088 23.056,37.416 22.576,36.84 C21.808,35.88 21.712,34.392 21.712,33.048 L21.712,31.704 L11.248,31.704 L11.248,32.28 C11.248,35.4 11.296,39.528 14.32,42.6 C17.632,45.912 22.816,45.96 26.032,45.96 Z M62.256,45 L62.256,24.456 L61.872,21.432 L62.256,21.432 L71.088,45 L78.432,45 L87.312,21.432 L87.696,21.432 L87.312,24.456 L87.312,45 L97.584,45 L97.584,11.4 L83.136,11.4 L74.928,34.248 L74.64,34.248 L66.432,11.4 L51.984,11.4 L51.984,45 L62.256,45 Z" id="JM" fill="#404040" fill-rule="nonzero"></path>
    </g>
</svg>