<?xml version="1.0" encoding="UTF-8"?>
<svg width="109px" height="83px" viewBox="0 0 109 83" version="1.1" xmlns="http://www.w3.org/2000/svg" xmlns:xlink="http://www.w3.org/1999/xlink">
    <title>Logo/Large/Oranje/Achtergrond</title>
    <g id="Logo/Large/Oranje/Achtergrond" stroke="none" stroke-width="1" fill="none" fill-rule="evenodd">
        <rect id="Rectangle" fill="#E56D1D" x="0" y="0" width="109" height="83"></rect>
        <path d="M26.032,45.96 C29.296,45.96 34.384,45.912 37.552,42.648 C40.576,39.528 40.624,34.968 40.624,32.232 L40.624,11.4 L29.968,11.4 L29.968,32.712 C29.968,33.912 29.872,35.688 29.008,36.792 C28.144,37.896 26.848,38.088 25.84,38.088 C23.968,38.088 23.056,37.416 22.576,36.84 C21.808,35.88 21.712,34.392 21.712,33.048 L21.712,31.704 L11.248,31.704 L11.248,32.28 C11.248,35.4 11.296,39.528 14.32,42.6 C17.632,45.912 22.816,45.96 26.032,45.96 Z M62.256,45 L62.256,24.456 L61.872,21.432 L62.256,21.432 L71.088,45 L78.432,45 L87.312,21.432 L87.696,21.432 L87.312,24.456 L87.312,45 L97.584,45 L97.584,11.4 L83.136,11.4 L74.928,34.248 L74.64,34.248 L66.432,11.4 L51.984,11.4 L51.984,45 L62.256,45 Z" id="JM" fill="#FFFFFF" fill-rule="nonzero"></path>
        <path d="M15.37425,72 L15.37425,63.012 L15.20625,61.689 L15.37425,61.689 L19.23825,72 L22.45125,72 L26.33625,61.689 L26.50425,61.689 L26.33625,63.012 L26.33625,72 L30.83025,72 L30.83025,57.3 L24.50925,57.3 L20.91825,67.296 L20.79225,67.296 L17.20125,57.3 L10.88025,57.3 L10.88025,72 L15.37425,72 Z M43.46175,72.399 C45.20475,72.399 46.40175,72.315 47.40975,71.979 C49.00575,71.433 50.09775,70.215 50.26575,68.514 L45.91875,68.514 C45.83475,68.934 45.64575,69.312 45.05775,69.564 C44.63775,69.753 44.13375,69.795 43.48275,69.795 C42.87375,69.795 42.01275,69.711 41.44575,69.186 C41.02575,68.787 40.75275,68.115 40.75275,67.527 L40.75275,67.464 L50.41275,67.464 L50.41275,67.233 C50.41275,65.679 50.28675,64.125 48.94275,62.76 C47.38875,61.185 44.99475,60.933 43.16775,60.933 C41.36175,60.933 39.28275,61.164 37.77075,62.613 C36.90975,63.453 36.13275,64.839 36.13275,66.813 C36.13275,68.808 36.93075,70.005 37.66575,70.719 C39.34575,72.357 41.73975,72.399 43.46175,72.399 Z M45.98175,65.448 L40.79475,65.448 C40.87875,64.839 41.21475,64.272 41.63475,63.936 C42.03375,63.621 42.66375,63.453 43.39875,63.453 C43.73475,63.453 44.63775,63.474 45.22575,63.936 C45.58275,64.209 45.93975,64.734 45.98175,65.448 Z M60.65025,72.315 C61.61625,72.315 62.49825,72.252 63.29625,71.916 C63.92625,71.643 64.34625,71.265 64.66125,70.845 L64.74525,70.845 L64.74525,72 L68.98725,72 L68.98725,57.3 L64.53525,57.3 L64.53525,62.382 C64.09425,61.857 63.63225,61.563 63.04425,61.353 C62.20425,61.038 61.46925,61.017 60.77625,61.017 C59.41125,61.017 57.73125,61.206 56.45025,62.445 C55.14825,63.705 54.98025,65.322 54.98025,66.477 C54.98025,67.842 55.19025,69.585 56.42925,70.866 C57.73125,72.231 59.36925,72.315 60.65025,72.315 Z M62.12025,69.627 C61.63725,69.627 60.96525,69.543 60.44025,69.039 C59.93625,68.577 59.60025,67.716 59.60025,66.666 C59.60025,65.616 59.93625,64.755 60.44025,64.293 C60.96525,63.789 61.63725,63.705 62.12025,63.705 C62.60325,63.705 63.27525,63.789 63.80025,64.293 C64.30425,64.755 64.64025,65.616 64.64025,66.666 C64.64025,67.716 64.30425,68.577 63.80025,69.039 C63.27525,69.543 62.60325,69.627 62.12025,69.627 Z M79.05675,59.841 L79.05675,57.111 L74.60475,57.111 L74.60475,59.841 L79.05675,59.841 Z M79.05675,72 L79.05675,61.332 L74.60475,61.332 L74.60475,72 L79.05675,72 Z M89.06325,72.399 C89.88225,72.399 90.59625,72.357 91.33125,72.105 C92.10825,71.832 92.63325,71.412 93.03225,70.887 L93.13725,70.887 L93.38925,72 L98.03025,72 L98.03025,71.769 C97.86225,71.727 97.67325,71.622 97.52625,71.328 C97.33725,70.971 97.35825,70.53 97.35825,70.047 L97.35825,65.448 C97.35825,64.251 97.14825,62.907 95.65725,61.941 C94.41825,61.143 92.19225,60.996 90.70125,60.996 C88.45425,60.996 87.19425,61.416 86.41725,61.92 C85.07325,62.781 84.75825,63.957 84.73725,64.902 L88.97925,64.902 C88.95825,64.545 89.04225,64.146 89.48325,63.831 C89.88225,63.537 90.42825,63.474 90.95325,63.474 C91.58325,63.474 92.00325,63.558 92.27625,63.705 C92.84325,63.978 92.90625,64.44 92.90625,64.629 C92.90625,64.839 92.84325,65.196 92.44425,65.427 C92.06625,65.658 91.24725,65.742 90.84825,65.784 L89.08425,65.931 C87.80325,66.036 86.31225,66.099 85.32525,66.897 C84.80025,67.317 84.29625,68.031 84.29625,69.165 C84.29625,70.467 84.94725,71.265 85.53525,71.685 C86.41725,72.294 87.74025,72.399 89.06325,72.399 Z M90.44925,69.963 C90.02925,69.963 89.56725,69.921 89.25225,69.711 C89.12625,69.627 88.81125,69.375 88.81125,68.892 C88.81125,68.493 89.00025,68.157 89.31525,67.968 C89.63025,67.779 90.02925,67.737 90.68025,67.674 L91.37325,67.611 C92.44425,67.506 92.80125,67.233 92.94825,67.107 L92.94825,67.212 C92.94825,68.178 92.69625,68.871 92.29725,69.291 C91.73025,69.9 91.01625,69.963 90.44925,69.963 Z" id="Media" fill="#FFFFFF" fill-rule="nonzero"></path>
    </g>
</svg>